<mxfile host="app.diagrams.net" modified="2023-12-06T08:54:13.958Z" agent="Mozilla/5.0 (Windows NT 10.0; Win64; x64) AppleWebKit/537.36 (KHTML, like Gecko) Chrome/119.0.0.0 Safari/537.36 Edg/119.0.0.0" version="22.1.5" etag="Dd0YRwLKYRSV7JISdGKg" type="github">
  <diagram name="第 1 页" id="DynYh5Pp3s0QMYPPIYiD">
    <mxGraphModel>
      <root>
        <mxCell id="0" />
        <mxCell id="1" parent="0" />
      </root>
    </mxGraphModel>
  </diagram>
</mxfile>
